<?xml version="1.0" encoding="utf-8"?>
<!-- Generator: Adobe Illustrator 19.1.0, SVG Export Plug-In . SVG Version: 6.00 Build 0)  -->
<svg version="1.1" id="Layer_1" xmlns="http://www.w3.org/2000/svg" xmlns:xlink="http://www.w3.org/1999/xlink" x="0px" y="0px"
	 viewBox="0 0 122 122" style="enable-background:new 0 0 122 122;" xml:space="preserve">
<style type="text/css">
	.st0{fill:#EAEAEA;}
	.st1{fill:#F8C75E;}
	.st2{fill:#C5AC88;}
	.st3{fill:#F78A14;}
	.st4{fill:#B93113;}
	.st5{fill:#E4856C;}
	.st6{fill:#753929;}
	.st7{fill:#BEBEBE;}
</style>
<g>
	<circle class="st0" cx="61" cy="61" r="61"/>
	<g>
		<polygon class="st1" points="27.8,73 39.2,43.7 62.9,29.7 80.7,44.2 87.2,69.5 83.3,83.6 44.2,83.5 		"/>
		<polygon class="st2" points="42,80.7 21.6,83.6 22.6,55.5 42.5,51.3 		"/>
		<polygon class="st3" points="42.7,51.4 22.6,55.6 43.3,34.6 63,29.7 		"/>
		<polygon class="st4" points="100.4,57.8 79.6,61.1 62.9,29.7 84.3,24.3 		"/>
		<polygon class="st5" points="64.4,77.2 42.1,80.7 42.6,51.3 64.6,46.6 		"/>
		<polygon class="st6" points="100,84.5 79,80.3 79.6,61.1 100.3,57.8 		"/>
		<polygon class="st7" points="59.8,89.3 100,84.5 64.4,77.2 21.6,83.6 		"/>
	</g>
</g>
</svg>
