<?xml version="1.0" encoding="utf-8"?>
<!-- Generator: Adobe Illustrator 19.1.0, SVG Export Plug-In . SVG Version: 6.00 Build 0)  -->
<svg version="1.1" id="Layer_1" xmlns="http://www.w3.org/2000/svg" xmlns:xlink="http://www.w3.org/1999/xlink" x="0px" y="0px"
	 viewBox="0 0 304 60" style="enable-background:new 0 0 304 60;" xml:space="preserve">
<style type="text/css">
	.st0{fill:#EEC700;}
</style>
<g>
	<g>
		<path d="M101.7,16.1v7.8c-3.8-3.2-7.7-4.8-11.8-4.8c-4.5,0-8.3,1.6-11.3,4.8c-3.1,3.2-4.6,7.1-4.6,11.7c0,4.6,1.5,8.4,4.6,11.6
			c3.1,3.1,6.9,4.7,11.3,4.7c2.3,0,4.3-0.4,5.9-1.1c0.9-0.4,1.8-0.9,2.8-1.5c1-0.6,2-1.4,3.1-2.3V55c-3.8,2.1-7.7,3.2-11.9,3.2
			c-6.2,0-11.5-2.2-16-6.5c-4.4-4.4-6.6-9.7-6.6-15.9c0-5.6,1.8-10.5,5.5-14.8c4.5-5.3,10.4-8,17.5-8C94.3,12.9,98.1,14,101.7,16.1z
			"/>
		<path d="M132.3,46.8h-18.7l-4.9,10.6h-7.1l21.6-46.3l20.8,46.3h-7.2L132.3,46.8z M129.6,40.6l-6.5-14.8l-6.8,14.8H129.6z"/>
		<path d="M153.2,20v37.4h-6.6V20h-10v-6.2h26.6V20H153.2z"/>
		<path d="M189.4,20.3l-5.3,3.2c-1-1.7-1.9-2.9-2.9-3.4c-0.9-0.6-2.2-0.9-3.6-0.9c-1.8,0-3.3,0.5-4.5,1.6c-1.2,1-1.8,2.3-1.8,3.8
			c0,2.1,1.6,3.8,4.7,5.1l4.3,1.8c3.5,1.4,6.1,3.2,7.8,5.2c1.6,2.1,2.5,4.6,2.5,7.6c0,4-1.3,7.3-4,9.9c-2.7,2.6-6,4-10,4
			c-3.8,0-6.9-1.1-9.4-3.4c-2.4-2.2-3.9-5.4-4.5-9.5l6.7-1.5c0.3,2.6,0.8,4.3,1.6,5.3c1.4,1.9,3.3,2.8,5.9,2.8
			c2.1,0,3.8-0.7,5.1-2.1c1.4-1.4,2-3.1,2-5.2c0-0.8-0.1-1.6-0.4-2.3c-0.2-0.7-0.6-1.4-1.1-1.9c-0.5-0.6-1.1-1.1-1.9-1.7
			s-1.7-1-2.8-1.5l-4.2-1.7c-6-2.5-8.9-6.2-8.9-11.1c0-3.3,1.3-6,3.8-8.2c2.5-2.2,5.6-3.3,9.3-3.3C182.6,12.9,186.5,15.4,189.4,20.3
			z"/>
		<path d="M200.7,13.8v43.6h-6.6V13.8H200.7z"/>
		<path d="M221.6,38.8l13.5,18.6h-8l-12.5-17.8h-1.2v17.8h-6.6V13.8h7.7c5.8,0,9.9,1.1,12.5,3.2c2.8,2.4,4.2,5.6,4.2,9.5
			c0,3.1-0.9,5.7-2.7,8C226.8,36.8,224.5,38.2,221.6,38.8z M213.4,33.8h2.1c6.2,0,9.3-2.4,9.3-7.1c0-4.5-3-6.7-9.1-6.7h-2.3V33.8z"
			/>
		<path d="M261.3,20h-17.5v10.5h17v6.2h-17v14.6h17.5v6.2h-24.1V13.8h24.1V20z"/>
		<path d="M265.6,57.4V10.8l31.8,33.3V13.8h6.6V60l-31.8-33.2v30.5H265.6z"/>
	</g>
	<g>
		<g>
			<g>
				<path d="M60.6,56.2c-0.1,0-0.2,0-0.2,0c-2.9-0.1-5.2-2.6-5.5-3L20,18.4l1.5-1.5l34.9,34.9l0,0c0,0,1.8,2.1,4,2.2
					c1,0,1.9-0.4,2.8-1.3c1-1,1.4-1.9,1.4-2.8c0-1.7-1.8-3.2-3-4.4l-0.2-0.2l1.5-1.6l0.2,0.2c1.6,1.4,3.7,3.4,3.8,6
					c0,1.5-0.6,3-2,4.3C63.5,55.5,62.1,56.2,60.6,56.2z"/>
				<path class="st0" d="M19.8,16.8c-21.3,21.3-4.4,38.8-4.4,38.8c2.7-9.8,10.1-10.1,10.1-10.1s5.9-15.1,23.1-23.1
					c0,0,0.3-7.4,10.1-10.1c0,0-17.4-16.9-38.7,4.4C19.9,16.7,19.8,16.8,19.8,16.8z"/>
			</g>
			<g>
				<path d="M15.2,17c-0.2,0-0.3-0.1-0.4-0.2L10,12.1c-0.2-0.2-0.2-0.6,0-0.8c0.2-0.2,0.6-0.2,0.8,0l4.7,4.7c0.2,0.2,0.2,0.6,0,0.8
					C15.5,17,15.3,17,15.2,17z"/>
				<path d="M24.8,26.7c-0.2,0-0.3-0.1-0.4-0.2l-5-5c-0.2-0.2-0.2-0.6,0-0.8c0.2-0.2,0.6-0.2,0.8,0l5,5c0.2,0.2,0.2,0.6,0,0.8
					C25.1,26.6,25,26.7,24.8,26.7z"/>
				<path d="M16.2,26.7c-0.2,0-0.3-0.1-0.4-0.2l-4.9-4.9c-0.2-0.2-0.2-0.6,0-0.8c0.2-0.2,0.6-0.2,0.8,0l4.9,4.9
					c0.2,0.2,0.2,0.6,0,0.8C16.5,26.6,16.3,26.7,16.2,26.7z"/>
				<path d="M9.4,28.5c-0.2,0-0.3-0.1-0.4-0.2L2.7,22c-0.2-0.2-0.2-0.6,0-0.8c0.2-0.2,0.6-0.2,0.8,0l6.3,6.3c0.2,0.2,0.2,0.6,0,0.8
					C9.7,28.5,9.6,28.5,9.4,28.5z"/>
				<path d="M3.1,39.4c-0.2,0-0.3-0.1-0.4-0.2l-2.5-2.5c-0.2-0.2-0.2-0.6,0-0.8s0.6-0.2,0.8,0l2.5,2.5c0.2,0.2,0.2,0.6,0,0.8
					C3.4,39.4,3.3,39.4,3.1,39.4z"/>
				<path d="M20.8,39.9c-0.2,0-0.3-0.1-0.4-0.2l-8-8c-0.2-0.2-0.2-0.6,0-0.8c0.2-0.2,0.6-0.2,0.8,0l8,8c0.2,0.2,0.2,0.6,0,0.8
					C21.1,39.9,21,39.9,20.8,39.9z"/>
				<path d="M12.7,40.4c-0.2,0-0.3-0.1-0.4-0.2L4,32c-0.2-0.2-0.2-0.6,0-0.8s0.6-0.2,0.8,0l8.3,8.3c0.2,0.2,0.2,0.6,0,0.8
					C13,40.3,12.8,40.4,12.7,40.4z"/>
				<path d="M12.7,49c-0.2,0-0.3-0.1-0.4-0.2l-6.7-6.7c-0.2-0.2-0.2-0.6,0-0.8c0.2-0.2,0.6-0.2,0.8,0l6.7,6.7c0.2,0.2,0.2,0.6,0,0.8
					C13,49,12.8,49,12.7,49z"/>
				<path d="M7,51.9c-0.2,0-0.3-0.1-0.4-0.2l-2.9-2.9c-0.2-0.2-0.2-0.6,0-0.8c0.2-0.2,0.6-0.2,0.8,0l2.9,2.9c0.2,0.2,0.2,0.6,0,0.8
					C7.3,51.9,7.1,51.9,7,51.9z"/>
				<path d="M27.5,20.8c-0.2,0-0.3-0.1-0.4-0.2l-9.4-9.4c-0.2-0.2-0.2-0.6,0-0.8c0.2-0.2,0.6-0.2,0.8,0l9.4,9.4
					c0.2,0.2,0.2,0.6,0,0.8C27.9,20.7,27.7,20.8,27.5,20.8z"/>
				<path d="M25.1,9.7c-0.2,0-0.3-0.1-0.4-0.2L21,5.9c-0.2-0.2-0.2-0.6,0-0.8c0.2-0.2,0.6-0.2,0.8,0l3.7,3.7c0.2,0.2,0.2,0.6,0,0.8
					C25.4,9.7,25.3,9.7,25.1,9.7z"/>
				<path d="M44.6,3.4c-0.2,0-0.3-0.1-0.4-0.2l-1.8-1.8c-0.2-0.2-0.2-0.6,0-0.8s0.6-0.2,0.8,0L45,2.4c0.2,0.2,0.2,0.6,0,0.8
					C44.9,3.3,44.8,3.4,44.6,3.4z"/>
				<path d="M71.4,12.9c-0.2,0-0.3-0.1-0.4-0.2l-1.8-1.8c-0.2-0.2-0.2-0.6,0-0.8s0.6-0.2,0.8,0l1.8,1.8c0.2,0.2,0.2,0.6,0,0.8
					C71.7,12.8,71.5,12.9,71.4,12.9z"/>
				<path d="M34.2,18.8c-0.2,0-0.3-0.1-0.4-0.2l-5-5c-0.2-0.2-0.2-0.6,0-0.8s0.6-0.2,0.8,0l5,5c0.2,0.2,0.2,0.6,0,0.8
					C34.5,18.7,34.3,18.8,34.2,18.8z"/>
				<path d="M34.4,10.4c-0.2,0-0.3-0.1-0.4-0.2l-8.8-8.8c-0.2-0.2-0.2-0.6,0-0.8c0.2-0.2,0.6-0.2,0.8,0l8.8,8.8
					c0.2,0.2,0.2,0.6,0,0.8C34.7,10.3,34.5,10.4,34.4,10.4z"/>
				<path d="M44.9,12.3c-0.2,0-0.3-0.1-0.4-0.2L33.4,1c-0.2-0.2-0.2-0.6,0-0.8s0.6-0.2,0.8,0l11.1,11.1c0.2,0.2,0.2,0.6,0,0.8
					C45.2,12.2,45.1,12.3,44.9,12.3z"/>
				<path d="M52.1,10.9c-0.2,0-0.3-0.1-0.4-0.2l-4.9-4.9c-0.2-0.2-0.2-0.6,0-0.8s0.6-0.2,0.8,0l4.9,4.9c0.2,0.2,0.2,0.6,0,0.8
					C52.4,10.8,52.3,10.9,52.1,10.9z"/>
				<path d="M57.8,7.9c-0.2,0-0.3-0.1-0.4-0.2l-5.5-5.5c-0.2-0.2-0.2-0.6,0-0.8s0.6-0.2,0.8,0l5.5,5.5c0.2,0.2,0.2,0.6,0,0.8
					C58.1,7.9,57.9,7.9,57.8,7.9z"/>
				<path d="M66.4,7.9c-0.2,0-0.3-0.1-0.4-0.2l-5.5-5.5c-0.2-0.2-0.2-0.6,0-0.8s0.6-0.2,0.8,0l5.5,5.5c0.2,0.2,0.2,0.6,0,0.8
					C66.7,7.9,66.6,7.9,66.4,7.9z"/>
				<path d="M69.8,19.9c-0.2,0-0.3-0.1-0.4-0.2l-9.1-9.1c-0.2-0.2-0.2-0.6,0-0.8c0.2-0.2,0.6-0.2,0.8,0l9.1,9.1
					c0.2,0.2,0.2,0.6,0,0.8C70.1,19.9,69.9,19.9,69.8,19.9z"/>
			</g>
		</g>
		<path d="M55.9,24.1c0,0-1.8-2-2.1-2.8c0,0-0.5,1.5-0.1,4.4c0,0-0.2,2.5-1.7,3.5l-7.6,4.9c0,0-7.5,4.5-8.5,10.7s0.8,9.6,0.8,9.6
			S38.6,58,44,58s9.3,0.3,11.3-1.6c0,0,1.9,0.3,2.2-0.3c0,0,0.4-0.8-0.1-1.2c0,0,0.5,0.3,1.2,0.1c0,0,0.6-1.6-1.8-2
			c0,0,0.4-5,0.4-8.3c0,0,0.6-2.1,0.6-2.7c0,0,1.8-2.5,2-7.3c0,0-0.2-1.1,2.2-2.6c2.4-1.5,1.7-4.8,1.7-4.8s-0.5-2.1-0.8-2.3
			c0,0,0.7-3.3,1.3-3.9c0,0-1.2,0.4-3.4,2.5C60.7,23.7,58.7,22.8,55.9,24.1z"/>
	</g>
</g>
</svg>
