<?xml version="1.0" encoding="utf-8"?>
<!-- Generator: Adobe Illustrator 19.1.0, SVG Export Plug-In . SVG Version: 6.00 Build 0)  -->
<svg version="1.1" id="Layer_1" xmlns="http://www.w3.org/2000/svg" xmlns:xlink="http://www.w3.org/1999/xlink" x="0px" y="0px"
	 viewBox="0 0 118.4 26.7" style="enable-background:new 0 0 118.4 26.7;" xml:space="preserve">
<style type="text/css">
	.st0{fill:#EA0000;}
</style>
<path class="st0" d="M18.5,6.4h-4.9v10.3c0,1,0.3,1.5,0.8,1.8c0.4,0.2,1,0.3,1.7,0.3s1.4-0.2,2.3-0.5h0.2v2.5c-1,0.5-2,0.8-3.1,0.8
	c-3.3,0-5-1.5-5-4.5V6.4H7.2V6.2L13.5,0v3.8h4.9V6.4z"/>
<rect x="21.1" y="3.8" class="st0" width="3.1" height="17.4"/>
<path class="st0" d="M37.7,3.4c1.9,0,3.4,0.6,4.5,1.9c1.1,1.3,1.6,2.9,1.6,4.8v11.1h-3.1V10.4c0-2.8-1.3-4.2-3.8-4.2
	c-2,0-3.8,1.1-5.6,3.3v11.6h-3.1V3.8H31l0.4,2.2v0.5h0.1C33.3,4.4,35.4,3.4,37.7,3.4z"/>
<path class="st0" d="M76.1,3.8h3.4l-7.3,17.4h-3.1L61.8,3.8h3.4l5.4,13.7h0.1L76.1,3.8z"/>
<rect x="81.1" y="3.8" class="st0" width="3.1" height="17.4"/>
<path class="st0" d="M94.5,6.2c-1.5,0-2.5,0.2-3.2,0.6c-0.7,0.4-1,1-1,1.6s0.4,1.1,1.1,1.5c0.7,0.4,1.6,0.7,2.6,0.9
	c1,0.3,2,0.5,3,0.8c1,0.3,1.9,0.8,2.6,1.6c0.7,0.8,1,1.9,1,3.3c0,1.4-0.6,2.5-1.7,3.5c-1.1,1-2.9,1.4-5.1,1.4
	c-2.3,0-4.3-0.5-6.2-1.5v-3h0.2c1.8,1.1,3.9,1.6,6.1,1.6c2.5,0,3.8-0.8,3.8-2.4c0-0.5-0.4-1-1.1-1.3c-0.7-0.3-1.6-0.6-2.5-0.9
	c-1-0.3-2-0.5-3-0.8c-1-0.3-1.9-0.8-2.6-1.5s-1.1-1.7-1.1-2.9c0-1.6,0.6-2.9,1.7-3.9c1.1-1,2.7-1.5,4.7-1.5c2,0,3.8,0.3,5.5,1v2.8
	H99C97.5,6.6,96,6.2,94.5,6.2z"/>
<path class="st0" d="M118.4,12.5v1.1h-13.2c0.2,1.6,0.8,2.8,1.8,3.7c1,0.9,2.5,1.3,4.6,1.3c2,0,3.9-0.6,5.6-1.7h0.2v3
	c-1.9,1.1-4.2,1.6-6.7,1.6c-2.6,0-4.7-0.8-6.2-2.4c-1.6-1.6-2.3-3.7-2.3-6.4c0-2.7,0.7-4.9,2.1-6.7c1.4-1.8,3.4-2.6,6.1-2.6
	c2.7,0,4.7,0.9,6.1,2.6S118.4,9.9,118.4,12.5z M105.3,11h10.1c-0.1-1.6-0.6-2.9-1.7-3.7c-1-0.8-2.1-1.3-3.4-1.3
	c-1.3,0-2.4,0.4-3.4,1.3C105.9,8.1,105.3,9.4,105.3,11z"/>
<polygon class="st0" points="62.9,3.8 59.6,3.8 54,17.5 53.9,17.5 48.4,3.8 45,3.8 52.2,21.4 50.2,26.7 53.4,26.7 "/>
<circle class="st0" cx="2.5" cy="6.2" r="2.5"/>
<circle class="st0" cx="2.5" cy="17.2" r="2.5"/>
<rect x="1.6" y="7.9" class="st0" width="1.8" height="7"/>
<rect x="2.9" y="10.5" class="st0" width="8.1" height="1.8"/>
</svg>
