<?xml version="1.0" encoding="utf-8"?>
<!-- Generator: Adobe Illustrator 19.1.0, SVG Export Plug-In . SVG Version: 6.00 Build 0)  -->
<svg version="1.1" id="Layer_1" xmlns="http://www.w3.org/2000/svg" xmlns:xlink="http://www.w3.org/1999/xlink" x="0px" y="0px"
	 viewBox="0 0 119.9 34.2" style="enable-background:new 0 0 119.9 34.2;" xml:space="preserve">
<style type="text/css">
	.st0{fill:#EA0000;}
</style>
<path class="st0" d="M19.1,11.3h-5v10.4c0,1,0.3,1.6,0.8,1.8c0.4,0.2,1,0.3,1.7,0.3c0.7,0,1.4-0.2,2.3-0.6h0.2v2.5
	c-1,0.5-2,0.8-3.1,0.8c-3.3,0-5-1.5-5-4.5V11.3H7.8v-0.2l6.4-6.3v3.8h5V11.3z"/>
<rect x="21.8" y="8.6" class="st0" width="3.1" height="17.5"/>
<path class="st0" d="M38.5,8.3c1.9,0,3.4,0.6,4.5,1.9c1.1,1.3,1.7,2.9,1.7,4.8v11.1h-3.1V15.3c0-2.8-1.3-4.2-3.8-4.2
	c-2,0-3.9,1.1-5.6,3.3v11.7H29V8.6h2.8l0.4,2.2v0.5h0.1C34,9.3,36.2,8.3,38.5,8.3z"/>
<path class="st0" d="M77.3,8.6h3.4l-7.4,17.5h-3.1L62.9,8.6h3.4l5.4,13.8h0.1L77.3,8.6z"/>
<rect x="82.3" y="8.6" class="st0" width="3.1" height="17.5"/>
<path class="st0" d="M95.8,11.1c-1.5,0-2.6,0.2-3.3,0.6c-0.7,0.4-1,1-1,1.6c0,0.7,0.4,1.2,1.1,1.5c0.7,0.4,1.6,0.7,2.6,0.9
	c1,0.3,2,0.5,3,0.8c1,0.3,1.9,0.8,2.6,1.6c0.7,0.8,1,1.9,1,3.3c0,1.4-0.6,2.6-1.7,3.5c-1.2,1-2.9,1.4-5.2,1.4
	c-2.3,0-4.4-0.5-6.2-1.5v-3h0.2c1.9,1.1,3.9,1.7,6.1,1.7c2.5,0,3.8-0.8,3.8-2.5c0-0.5-0.4-1-1.1-1.3c-0.7-0.3-1.6-0.6-2.6-0.9
	c-1-0.3-2-0.5-3-0.8c-1-0.3-1.9-0.8-2.6-1.5c-0.7-0.8-1.1-1.7-1.1-2.9c0-1.6,0.6-2.9,1.7-3.9c1.2-1,2.7-1.5,4.7-1.5
	c2,0,3.9,0.3,5.6,1v2.9h-0.2C98.8,11.4,97.3,11.1,95.8,11.1z"/>
<path class="st0" d="M119.9,17.4v1.1h-13.3c0.2,1.6,0.8,2.9,1.8,3.7c1,0.9,2.5,1.3,4.6,1.3c2.1,0,4-0.6,5.7-1.7h0.2v3
	c-1.9,1.1-4.2,1.6-6.8,1.6c-2.6,0-4.7-0.8-6.3-2.4c-1.6-1.6-2.4-3.7-2.4-6.5c0-2.7,0.7-5,2.1-6.7c1.4-1.8,3.4-2.6,6.1-2.6
	c2.7,0,4.7,0.9,6.1,2.6S119.9,14.8,119.9,17.4z M106.6,15.9h10.1c-0.1-1.7-0.6-2.9-1.7-3.7c-1-0.8-2.2-1.3-3.4-1.3
	c-1.3,0-2.4,0.4-3.4,1.3C107.3,13,106.7,14.3,106.6,15.9z"/>
<g>
	<circle class="st0" cx="3.2" cy="3.2" r="3.2"/>
	<circle class="st0" cx="3.2" cy="19.4" r="3.2"/>
	<rect x="2.1" y="5.9" class="st0" width="2.4" height="11.6"/>
</g>
<rect x="3.9" y="8.7" class="st0" width="8.1" height="2.6"/>
<path class="st0" d="M62.3,16.7V8.6h0h-2.6l-0.4,2.2v8c0,0.1,0,0.1,0,0.2c-0.2,1.4-0.7,2.5-1.5,3.3c-0.8,0.7-1.6,1.1-2.5,1.2
	c-0.1,0-0.5,0-0.5,0c0,0-0.4,0-0.5,0c-1-0.1-1.8-0.5-2.6-1.2c-0.9-0.8-1.3-1.9-1.4-3.3C50,18.3,50,9.9,50,8.6h-1h-2.2
	c0,0.2,0,7.9,0,8.2c0,2.6,0.6,4.7,1.8,6.5c0.1,0.1,0.1,0.2,0.2,0.3c1.3,1.7,3.1,2.6,5.5,2.6c0.1,0,0.3,0,0.3,0
	c1.8,0,3.3-0.5,4.5-1.4c0.1,0,0.1-0.1,0.2-0.1v0.9c0,3.8-1.7,5.6-5,5.6c-0.1,0-0.2,0-0.2,0c-0.1,0-0.2,0-0.3,0c-0.5,0-0.9,0-1.4-0.1
	c-0.2,0-0.4,0-0.6-0.1v3c0.7,0.1,1.5,0.1,2.2,0.1c0.1,0,0.2,0,0.2,0c0.1,0,0.2,0,0.2,0c2.5,0,4.4-0.8,5.8-2.4c1.3-1.6,2-3.8,2-6.7
	v-8.2C62.3,16.9,62.3,16.8,62.3,16.7C62.3,16.8,62.3,16.7,62.3,16.7z"/>
</svg>
