<?xml version="1.0" encoding="utf-8"?>
<!-- Generator: Adobe Illustrator 19.1.0, SVG Export Plug-In . SVG Version: 6.00 Build 0)  -->
<svg version="1.1" id="Layer_1" xmlns="http://www.w3.org/2000/svg" xmlns:xlink="http://www.w3.org/1999/xlink" x="0px" y="0px"
	 viewBox="0 0 80.7 80.7" style="enable-background:new 0 0 80.7 80.7;" xml:space="preserve">
<style type="text/css">
	.st0{fill:#EA0000;}
	.st1{fill:#FFFFFF;}
</style>
<g>
	<circle class="st0" cx="40.4" cy="40.4" r="40.4"/>
	<g>
		<path class="st1" d="M57.2,35.5H47.1V53c0,1.9,0.5,3.2,1.6,3.6c0.9,0.4,2,0.6,3.4,0.6c1.4,0,2.9-0.4,4.6-1.1h0.5v5.1
			c-1.9,1-4,1.5-6.3,1.5c-6.8,0-10.1-3.1-10.1-9.2V35.5h-6.6v-0.4l12.9-12.6v7.6h10.1V35.5z"/>
		<g>
			<circle class="st1" cx="27.7" cy="21.6" r="5.6"/>
			<circle class="st1" cx="27.7" cy="47.5" r="5.6"/>
			<rect x="25.8" y="26.1" class="st1" width="4.1" height="18"/>
		</g>
		<rect x="28.6" y="30.2" class="st1" width="16.4" height="5.3"/>
	</g>
</g>
</svg>
