<?xml version="1.0" encoding="utf-8"?>
<!-- Generator: Adobe Illustrator 19.1.0, SVG Export Plug-In . SVG Version: 6.00 Build 0)  -->
<svg version="1.1" id="Layer_1" xmlns="http://www.w3.org/2000/svg" xmlns:xlink="http://www.w3.org/1999/xlink" x="0px" y="0px"
	 viewBox="0 0 112.4 33.6" style="enable-background:new 0 0 112.4 33.6;" xml:space="preserve">
<style type="text/css">
	.st0{fill:#EA0000;}
</style>
<g>
	<path class="st0" d="M17.7,4.8v3h-4.5v11.6c0,2.2,0.6,3.5,2.5,3.5c0.9,0,1.5-0.1,1.9-0.2l0.1,2.5c-0.6,0.3-1.6,0.4-2.9,0.4
		c-1.5,0-2.8-0.5-3.6-1.4c-0.9-1-1.3-2.6-1.3-4.7V7.8H1l-1-3H17.7z"/>
	<path class="st0" d="M3.9,3.2l1-3h12.9v3H3.9z"/>
</g>
<path class="st0" d="M21.4,4.1c1.3,0,2.1-0.9,2.1-2c0-1.2-0.8-2.1-2-2.1c-1.2,0-2.1,0.9-2.1,2.1C19.4,3.2,20.2,4.1,21.4,4.1z"/>
<rect x="19.8" y="7.2" class="st0" width="3.3" height="18.1"/>
<path class="st0" d="M26.7,12.1c0-1.9,0-3.4-0.1-4.9h2.9l0.2,3h0.1c0.9-1.7,3-3.4,6-3.4c2.5,0,6.4,1.5,6.4,7.7v10.8h-3.3V14.8
	c0-2.9-1.1-5.4-4.2-5.4c-2.2,0-3.9,1.5-4.4,3.4c-0.1,0.4-0.2,1-0.2,1.5v10.9h-3.3V12.1z"/>
<path class="st0" d="M46.3,7.2l4,10.7c0.4,1.2,0.9,2.6,1.2,3.7h0.1c0.3-1.1,0.7-2.5,1.2-3.8l3.6-10.6h3.5l-4.9,12.9
	c-2.4,6.2-4,9.4-6.2,11.3c-1.6,1.4-3.2,2-4,2.1l-0.8-2.8c0.8-0.3,1.9-0.8,2.9-1.6c0.9-0.7,2-2,2.8-3.7c0.1-0.3,0.3-0.6,0.3-0.8
	c0-0.2-0.1-0.4-0.2-0.9L42.7,7.2H46.3z"/>
<path class="st0" d="M63,7.2l3.6,10.2c0.6,1.6,1.1,3.1,1.5,4.6h0.1c0.4-1.5,0.9-3,1.5-4.6l3.5-10.2h3.4l-7.1,18.1h-3.1L59.5,7.2H63z
	"/>
<path class="st0" d="M81.6,2.1c0,1.1-0.8,2-2.1,2c-1.2,0-2-0.9-2-2c0-1.2,0.9-2.1,2.1-2.1C80.8,0,81.6,0.9,81.6,2.1z M77.9,25.3V7.2
	h3.3v18.1H77.9z"/>
<path class="st0" d="M84.3,21.9c1,0.6,2.7,1.3,4.3,1.3c2.4,0,3.5-1.2,3.5-2.7c0-1.6-0.9-2.4-3.4-3.3c-3.3-1.2-4.8-3-4.8-5.1
	c0-2.9,2.4-5.3,6.3-5.3c1.8,0,3.4,0.5,4.5,1.1l-0.8,2.4c-0.7-0.4-2-1-3.7-1c-1.9,0-3,1.1-3,2.5c0,1.5,1.1,2.2,3.4,3.1
	c3.1,1.2,4.8,2.8,4.8,5.5c0,3.2-2.5,5.4-6.8,5.4c-2,0-3.8-0.5-5.1-1.2L84.3,21.9z"/>
<path class="st0" d="M99.6,16.8c0.1,4.5,2.9,6.3,6.2,6.3c2.4,0,3.8-0.4,5-0.9l0.6,2.4c-1.2,0.5-3.1,1.1-6,1.1
	c-5.6,0-8.9-3.7-8.9-9.1s3.2-9.8,8.5-9.8c5.9,0,7.5,5.2,7.5,8.5c0,0.7-0.1,1.2-0.1,1.5H99.6z M109.2,14.5c0-2.1-0.9-5.4-4.6-5.4
	c-3.3,0-4.8,3.1-5.1,5.4H109.2z"/>
</svg>
