<?xml version="1.0" encoding="utf-8"?>
<!-- Generator: Adobe Illustrator 19.1.0, SVG Export Plug-In . SVG Version: 6.00 Build 0)  -->
<svg version="1.1" id="Layer_1" xmlns="http://www.w3.org/2000/svg" xmlns:xlink="http://www.w3.org/1999/xlink" x="0px" y="0px"
	 viewBox="0 0 304.9 118" style="enable-background:new 0 0 304.9 118;" xml:space="preserve">
<style type="text/css">
	.st0{fill:#4B700B;}
	.st1{fill:#CE5605;}
	.st2{fill:#D18602;}
	.st3{fill:#A9EBED;}
	.st4{fill:#FFD400;}
</style>
<g>
	<path class="st0" d="M70.2,82c-1-4.1-1.8-8.2-2.6-12.4c-0.7-4.2-1.8-13.5-3-27.9c-1.3-14.4-1.9-24-1.9-29c0-0.7-0.3-1.3-0.9-1.7
		c-0.6-0.4-1.3-0.7-1.9-0.7c-0.6,0.6-1.6,0.9-2.8,0.9l-2.1-0.2c-0.5,0.9-1.2,5.5-2.1,13.6c-0.4,3.3-0.7,6-1,7.9
		c-0.3,1.9-1.1,6.1-2.5,12.3c-1.4,6.3-2.2,10.4-2.5,12.3c-0.3,1.9-0.9,5.8-1.9,11.8c-1,6-1.6,9.9-2,11.9c-0.3,1.4-0.8,4.3-1.6,8.8
		c1.4,0.8,3.2,1.5,5.6,1.7c0.1,0,0.1,0,0.1,0c0.5,0,1.1,0,1.9,0c1.7,0,3.3,0.3,4.7,0.9c0,0.9-0.1,2.1-0.1,3.8c0,2.6-0.1,4.4-0.1,5.6
		c0,1.2-0.2,2.8-0.4,4.7c-0.2,2-0.4,3.6-0.7,4.9c-0.3,1.3-0.2,2.3,0.2,3c0.4,0.7,1.6,1.2,3.7,1.6c0.9-0.3,1.5-1.4,1.9-3.2
		c0.3-1.8,0.5-5.1,0.5-9.7c0-4.7,0.2-8.1,0.7-10.4l0.2-0.4c1.5,0.1,3,0.2,4.3,0.4l0.1-0.2c0,0,5.7,0.9,7.5-0.7l0.2-0.5
		C71.7,89.2,71.2,86.1,70.2,82z"/>
	<g>
		<path d="M267.8,82.1l1.3,29.8c0,1.8-1,2.8-2.9,2.8l-2.2-1.2c-1.1-6.1-1.7-13.5-1.7-22l0.7-28.4c-0.6-1.5-1-2.7-1-3.5
			c1-1.7,1.6-6.4,1.6-14.1c0-18.2-0.3-28-0.9-29.6c1-2.5,1.7-3.8,2.2-3.8h6.7c1.2,0,2.9,0.6,5,1.7c2.1,1.1,3.7,2.2,5,3.3
			c2.5,2.3,3.8,8.4,3.8,18.1c0,8.6-0.4,13.8-1.1,15.6c-0.7,1.8-1.5,3.4-2.4,4.8c-0.8,1.4-1.9,2.5-3.2,3.4c-2.8,2-6.5,3.7-10.9,5.1
			V82.1z M267.6,20.8l0.7,22l-0.6,14.4l1,1.5c7.5,0,11.4-7.8,11.7-23.5c0-1.1,0-2.5,0-4.1s-0.1-3-0.1-4.2c-0.1-1.1-0.3-2.4-0.7-3.8
			s-0.9-2.5-1.5-3.4c-1.5-2-3.9-3.1-7.1-3.1c-1.3,0-2.2,0.3-2.7,1C267.9,18.3,267.6,19.4,267.6,20.8z"/>
		<g>
			<path class="st0" d="M286.3,18.6c0,0-4.7-2.8-1.6-10.4c3.1-7.7,11.1-7,11.1-7S295.7,26,286.3,18.6z"/>
			<path class="st0" d="M287,32c0,0-2.3-13,17.9-4.3C304.9,27.6,292.5,44.7,287,32z"/>
		</g>
	</g>
	<g>
		<path d="M21.6,49.9L21,80.7c0,8.6,0.8,14.8,2.5,18.5c1.9,4.4,4.3,7.2,7.2,8.5c1.9,0.8,3.8,1.3,5.8,1.3c2,0,3.5-0.4,4.5-1.3
			c1.5,0,2.3,0.5,2.3,1.6c0,0.8-0.7,1.7-2.1,2.6c-1.4,1-2.6,1.7-3.8,2.1h-5.1c-0.6-0.3-1.8-0.8-3.6-1.3c-1.7-0.5-3.3-1.4-4.8-2.4
			c-1.5-1.1-2.8-2.8-4.1-5.3c-1.3-2.5-2.2-5.3-2.8-8.6C16.2,91,15.7,85,15.7,78.3V60.9c0-13.6,0.5-22.9,1.5-27.9
			c2-10.2,4.7-16.6,8.1-19.3c0.9-0.7,2.3-1.4,4.1-2.1c1.9-0.7,3.1-1.3,3.8-1.7h6.1c0.1,0,0.2,0,0.4,0.1c0.2,0,0.3,0.1,0.4,0.1
			c0.1,0,0.2,0.1,0.4,0.1c0.2,0,0.3,0.1,0.4,0.1c0.1,0,0.2,0.1,0.3,0.1c0.1,0.1,0.2,0.1,0.3,0.2c0.4,0.4,0.7,1,0.7,1.6l-2,2.2h-6.4
			c-2.1,0-3.9,1-5.4,2.9c-1.5,2-2.7,4.3-3.5,7s-1.5,5.8-2,9.3c-0.7,5.3-1.1,10.5-1.1,15.4L21.6,49.9z"/>
		<polygon class="st1" points="19.6,24.4 19,11.6 14.7,14.6 9.2,9.7 7.9,14 0,14.6 6.1,20.1 0.6,22.6 6.7,23.2 9.8,26.3 7.9,31.8 
			11,31.8 13.5,36 		"/>
		<polygon class="st2" points="22.9,31.8 26.6,23.5 27.5,27.4 33.2,23.8 31.9,28 31,30.3 39.4,26.3 39.2,29.1 41.4,29.7 39.7,32.4 
			40,34.2 33.5,34.5 35.8,37.3 31.6,38.2 33.4,42.3 27,41 22,33.8 		"/>
	</g>
	<path d="M206,15.4c0,0,0.3-0.2,0.8-0.7c0.5-0.4,1-0.7,1.3-0.7c0.3,0,1.4,0.3,3.2,0.9c0,8,0.3,14.8,1,30.7c0.6,15.8,1,28.6,1,38.3
		c0,9.7,0.3,18.9,1,27.7l-1,1.7c-0.1-1-1.7-1.6-4.7-1.6c-0.5-22.6-0.7-36.3-0.7-41l-0.4-0.6l0.5-1.3c0-1.6-0.2-3.5-0.5-5.7l-2.4-0.6
		c-0.9,0.3-1.9,0.4-3.1,0.4l-9.8-1.6l-1.6,0.6l-0.4,19.3l0.4,0.7l0.9,25.5c0,2.6-0.8,4-2.5,4c-2.2,0-3.4-3.1-3.4-9.2l0.3-28
		c0-9.3-0.1-14.2-0.4-14.9c0.5-1,0.7-4.4,0.7-10.2l-1.1-35.8c0-0.7,0.3-1.4,0.8-2c0.5-0.6,1.1-0.9,1.8-0.9c2,0,3.1,3,3.1,8.9
		l-0.6,37.3c0,1.2,4.1,1.8,12.2,1.8c1.9,0,3.3-0.4,4.2-1.1c0.9-0.7,1.3-2.7,1.3-6c0-3.3-0.3-9.6-1-19c-0.7-9.4-1-11.4-1-16.1
		C206,15.8,206,15.4,206,15.4z M203.7,56.5l0.3,0.3h-0.3V56.5z"/>
	<g>
		<path class="st3" d="M114.8,54.1c0,0,5.4,11.7,11.7,3.4c0,0,2.9,9.6,11.7,6.3l1.3-44.8L126,13.6L114.8,54.1z"/>
		<path class="st3" d="M77.1,54.4c0,0,4.6,6,12.2,2.3c0,0,4.6,7,18.4,1.7l-5-11.3L96,28.8L89.1,12l-9.8,4.8L77.1,54.4z"/>
		<path d="M138.8,79.5l-0.3,16c0,7.1,0.5,12.4,1.5,15.9c0.2,0.6,0.3,1.2,0.3,1.9c0,0.7-0.3,1.6-0.9,2.8c-0.6,1.1-1.4,1.7-2.4,1.7
			c-2,0-3.1-3.3-3.1-9.8c0-21.2-0.2-34.2-0.5-38.8c-0.3-4.7-0.7-8.4-1-11.3c-0.4-2.9-0.6-5.1-0.6-6.6l0.6-19c0-3.6-0.2-6-0.6-7.2
			c-2,1.6-8.1,23.1-18.4,64.4c-0.1,0.3-0.2,1.1-0.3,2.2c-0.1,1.1-0.3,2.2-0.4,3.2c-0.2,1-0.4,2-0.7,3c-0.6,2.3-1.7,3.4-3.1,3.4
			c-1.7,0-2.9-0.4-3.5-1.2c-0.7-0.8-1-2.1-1-3.8c0-4.2-2.6-16.8-7.9-37.9C91,37.3,87.5,25.9,85.7,24.2C85.5,29.7,85,38,84.4,49.3
			c-1.3,23.5-2,39.3-2,47.4c0,8.1,0,12.8,0.1,14.1c-0.4,1.3-1.5,2-3.2,2c-0.3,0-0.9-0.3-1.6-0.8c-0.7-0.5-1-1-1-1.3
			c0-10.7,0.8-26.8,2.4-48.2c1.6-21.4,2.4-37.5,2.4-48.2l-0.9-2.9c0-1.5,1.4-2.3,4.1-2.3c1.5,0,2.5,0.8,3,2.4
			c0.3,1.2,0.6,2.5,0.6,3.8c0.1,1.3,0.3,2.8,0.6,4.5c0.3,1.7,1.6,5.1,3.9,10.3c2.3,5.2,3.7,8.7,4.2,10.6c0.5,1.8,1.1,4.1,1.9,6.8
			c1.6,5.8,2.7,10.2,3.3,13.1l2,4c0.3,1.7,0.9,4.2,1.7,7.5c1.7,6.9,2.6,12.4,2.7,16.5c1.2-1.8,4.4-12.3,9.6-31.6
			c5.2-19.3,8.1-30.2,8.5-32.7c0.5-2.5,0.8-4.5,1-5.8c0.2-1.3,0.4-2.4,0.6-3.1c0.2-0.8,0.5-1.7,0.8-2.8c0.7-2.1,2-3.1,3.7-3.1
			c0.6,0,1.4,0.3,2.4,0.9c0.9,0.6,1.4,1.2,1.4,1.9C136.8,54.8,137.4,77.3,138.8,79.5z M131.8,24.2h-0.1l-0.2,0.1l0.4,0.1V24.2z"/>
	</g>
	<g>
		<path d="M158.2,82.1l1.3,29.8c0,1.8-1,2.8-2.9,2.8l-2.2-1.2c-1.1-6.1-1.7-13.5-1.7-22l0.7-28.4c-0.6-1.5-1-2.7-1-3.5
			c1-1.7,1.6-6.4,1.6-14.1c0-18.2-0.3-28-0.9-29.6c1-2.5,1.7-3.8,2.2-3.8h6.7c1.2,0,2.9,0.6,5,1.7s3.7,2.2,5,3.3
			c2.5,2.3,3.8,8.4,3.8,18.1c0,8.6-0.4,13.8-1.1,15.6c-0.7,1.8-1.5,3.4-2.4,4.8c-0.8,1.4-1.9,2.5-3.2,3.4c-2.8,2-6.5,3.7-10.9,5.1
			V82.1z M158.1,20.8l0.7,22l-0.6,14.4l1,1.5c7.5,0,11.4-7.8,11.7-23.5c0-1.1,0-2.5,0-4.1s-0.1-3-0.2-4.2c-0.1-1.1-0.3-2.4-0.7-3.8
			s-0.9-2.5-1.5-3.4c-1.5-2-3.9-3.1-7.1-3.1c-1.3,0-2.2,0.3-2.7,1C158.3,18.3,158.1,19.4,158.1,20.8z"/>
		<polygon class="st1" points="156.4,18.1 147.5,24.9 148.3,21.7 140.9,23.2 145.8,17.7 144.1,16.2 148.8,14.8 140.7,11.4 
			143.2,9.7 139.2,0.9 146.6,4.7 148.2,3 152.4,8.9 152.8,3.7 154.6,5.2 159.2,0.9 161.9,7.2 164.1,7.5 		"/>
	</g>
	<g>
		<path class="st4" d="M234.3,17.5c-2,0-3.8,0.4-5.4,1.3c-6.6,3.5-10,13.3-10,29.4l0.3,12.8l-0.3,0.5c0,10.3,1.9,18,5.8,23.1
			c1.7,2.5,3.5,3.9,5.3,4.1c0.7,0.1,1.9,0.3,3.6,0.5c1.7,0.2,3,0.5,4,0.8c1,0.3,1.7,0.6,2.3,1c0.6,0.4,1.2,0.6,1.8,0.6
			c2.7,0,4.8-2.7,6.1-8.2c1.8-7.5,2.7-16.3,2.7-26.4C250.4,30.7,245,17.5,234.3,17.5z"/>
		<path d="M258,112.4c-1.7-20.3-7.7-30.4-17.8-30.4c-2.3,0-4.4,0.5-6.2,1.5c-7,3.6-10.7,13.3-11.3,29c0,0-0.1,1.4,1.6,2.4
			c1.6,1.5,4.4,2.5,8.7,2.9c7.3,0.6,15.7,0.3,25-0.9v-4.5H258z M227.7,112.2l-0.1-0.1c0.1-2,0.3-4.2,0.5-6.5
			c0.3-2.7,0.7-5.1,1.3-7.3c0.6-2.2,1.4-4.3,2.3-6.4c0.9-2.1,2.2-3.7,3.7-4.9c1.6-1.2,3.4-1.8,5.4-1.8c2.1,0,3.9,1,5.5,2.9
			c1.6,1.9,2.8,4.2,3.6,6.7c1.7,5.2,2.7,10.7,3.1,16.4c-0.4-0.8-0.8-1.6-1.3-2.4c-2.4-4.4-4.8-8.3-7.1-11.8c0,0-1.4,0.4-2.1,0.3
			c-0.7-0.1-1.3,0.9-1.3,0.9c-0.2,0.4-0.5,0.8-0.7,1.2l0,0c0,0,0,0,0,0c-2.1,3.2-4.2,6.7-6.3,10.6c-0.5,1-1.1,2-1.6,3
			C229.5,113.1,227.8,112.8,227.7,112.2z M238.6,112.9c-0.1,0-0.1,0-0.2,0l0.1-0.3l4.8-8.2c0,0,0-0.1,0.1-0.1l4.2,7.1l0.4,0.9
			C246.1,112.4,242.9,112.6,238.6,112.9z"/>
		<path class="st3" d="M236.6,13.9c0,0-4-0.4-3-4.7c1-4.4,5.2-1.8,5.2-1.8s-1.8-3.3,1-4.2s4.6-0.4,5.4,1.3c0,0-1.4-4.2,2.8-4.4
			s6.3,3.1,5.6,4.9c0,0,5.2-1.1,5.8,2c0.6,3.1,0.2,4.7-1.8,5.5C257.4,12.4,249.5,16.2,236.6,13.9z"/>
	</g>
</g>
</svg>
